<svg height="480pt" viewBox="-96 0 480 480" width="480pt" xmlns="http://www.w3.org/2000/svg"><path d="m280 160h-56v-56c-.027344-22.082031-17.917969-39.972656-40-40h-24.203125c5.289063-6.882812 8.171875-15.316406 8.203125-24 0-22.089844-17.910156-40-40-40s-40 17.910156-40 40c.03125 8.683594 2.914062 17.117188 8.203125 24h-24.203125c-22.082031.027344-39.972656 17.917969-40 40v8h-24c-2.949219 0-5.660156 1.625-7.054688 4.226562-1.390624 2.601563-1.238281 5.757813.398438 8.210938l30.65625 45.984375v277.578125h16v24c0 2.121094.839844 4.15625 2.34375 5.65625 1.5 1.503906 3.535156 2.34375 5.65625 2.34375h32c3.03125 0 5.800781-1.710938 7.15625-4.421875l13.789062-27.578125h38.109376l13.789062 27.578125c1.355469 2.710937 4.125 4.421875 7.15625 4.421875h32c2.121094 0 4.15625-.839844 5.660156-2.34375 1.5-1.5 2.339844-3.535156 2.339844-5.65625v-24h16v-80h56c2.121094 0 4.15625-.839844 5.660156-2.34375 1.5-1.5 2.339844-3.535156 2.339844-5.65625v-192c0-2.121094-.839844-4.15625-2.339844-5.65625-1.503906-1.503906-3.539062-2.34375-5.660156-2.34375zm-152-144c13.253906 0 24 10.746094 24 24s-10.746094 24-24 24-24-10.746094-24-24c.015625-13.25 10.75-23.984375 24-24zm-44.945312 448h-19.054688v-16h27.054688zm108.945312 0h-19.054688l-8-16h27.054688zm16-32h-160v-183.8125l.140625.082031c.324219.195313.667969.386719 1.003906.582031.5625.332032 1.132813.65625 1.722657.980469.375.207031.765624.40625 1.152343.609375.574219.300782 1.160157.59375 1.761719.882813.425781.203125.863281.398437 1.304688.59375.613281.269531 1.246093.53125 1.894531.785156.472656.183594.953125.363281 1.441406.535156.679687.238281 1.390625.460938 2.117187.675781.515626.152344 1.03125.304688 1.574219.445313.78125.199219 1.609375.371094 2.445313.542969.550781.109375 1.082031.230468 1.660156.324218.957031.160157 1.988281.277344 3.023438.386719.527343.058594 1.019531.136719 1.566406.179688 1.621094.128906 3.320312.207031 5.136718.207031 9.933594.253906 19.710938-2.492188 28.054688-7.886719v71.886719h-40v48h128v-48h-40v-71.824219c8.328125 5.355469 18.070312 8.082031 27.96875 7.824219 1.820312 0 3.523438-.078125 5.148438-.207031.554687-.042969 1.058593-.125 1.59375-.183594 1.023437-.109375 2.042968-.222656 2.996093-.382813.59375-.097656 1.144531-.222656 1.714844-.335937.8125-.167969 1.621094-.332031 2.382813-.527344.570312-.148437 1.113281-.308593 1.65625-.472656.6875-.207031 1.367187-.414063 2.019531-.640625.527343-.1875 1.042969-.378906 1.550781-.578125.601562-.234375 1.191406-.476563 1.761719-.730469.488281-.214844.972656-.429687 1.441406-.652344.546875-.261718 1.078125-.53125 1.601563-.804687.445312-.230469.890624-.457031 1.320312-.691406.488281-.273438.964844-.546875 1.4375-.820313.453125-.261718.914062-.519531 1.351562-.785156l.054688-.03125zm-80.054688-192c2.703126-.019531 5.402344.226562 8.054688.738281v79.261719h-16v-79.28125c2.617188-.496094 5.28125-.738281 7.945312-.71875zm-7.945312-15.453125v-48.546875h16v48.558594c-5.308594-.738282-10.691406-.746094-16-.011719zm56 111.453125v16h-96v-16zm-72-106.429688c-2.242188 1.175782-4.292969 2.414063-6.25 3.617188-13.121094 9.082031-30.496094 9.082031-43.617188 0-1.703124-1.046875-3.566406-2.15625-5.578124-3.238281-.199219-.109375-.351563-.21875-.554688-.324219v-53.625h56zm104 .03125c-.222656.117188-.390625.234376-.609375.351563-2.007813 1.082031-3.867187 2.1875-5.570313 3.234375-13.144531 9.082031-30.535156 9.082031-43.679687 0-1.925781-1.183594-3.941406-2.40625-6.140625-3.5625v-53.625h56zm0-69.601562h-163.71875l-21.335938-32h185.054688zm0-48h-160v-8c.015625-13.25 10.75-23.984375 24-24h112c13.25.015625 23.984375 10.75 24 24zm16 96h16v112h-16zm48 144h-48v-16h24c2.121094 0 4.15625-.839844 5.660156-2.34375 1.5-1.5 2.339844-3.535156 2.339844-5.65625v-128c0-2.121094-.839844-4.15625-2.339844-5.65625-1.503906-1.503906-3.539062-2.34375-5.660156-2.34375h-24v-16h48zm0 0"/><path d="m64 400h16v16h-16zm0 0"/><path d="m96 400h96v16h-96zm0 0"/></svg>