<?xml version="1.0" encoding="utf-8"?>
<!-- Generator: Adobe Illustrator 22.1.0, SVG Export Plug-In . SVG Version: 6.00 Build 0)  -->
<svg version="1.1" id="圖層_1" xmlns="http://www.w3.org/2000/svg" xmlns:xlink="http://www.w3.org/1999/xlink" x="0px" y="0px"
	 viewBox="0 0 256 256" style="enable-background:new 0 0 256 256;" xml:space="preserve">
<style type="text/css">
	.st0{stroke:#000000;stroke-width:2;stroke-miterlimit:10;}
	.st1{stroke:#000000;stroke-miterlimit:10;}
	.st2{fill:none;stroke:#000000;stroke-width:3;stroke-miterlimit:10;}
	.st3{stroke:#000000;stroke-width:3;stroke-miterlimit:10;}
	.st4{fill:#FFFFFF;stroke:#FFFFFF;stroke-width:2;stroke-miterlimit:10;}
</style>
<g id="C_O_F_F_E_E___R_O_O_M">
	<g id="C_O_F_F_E_E___R_O_O_M_1_">
		<path class="st0" d="M40.9,121.9c-2.5,1.3-5.6,2-9.3,2c-4.8,0-8.6-1.5-11.5-4.6s-4.3-7.1-4.3-12.1c0-5.4,1.6-9.7,4.9-13
			s7.3-5,12.3-5c3.2,0,5.8,0.5,7.9,1.4v4.2c-2.4-1.3-5.1-2-8-2c-3.9,0-7,1.3-9.4,3.9s-3.6,6-3.6,10.3c0,4.1,1.1,7.4,3.4,9.8
			s5.2,3.6,8.8,3.6c3.4,0,6.3-0.8,8.8-2.3V121.9z"/>
		<path class="st0" d="M74.5,123.9c-4.8,0-8.6-1.6-11.4-4.7s-4.3-7.2-4.3-12.3c0-5.4,1.5-9.7,4.4-12.9C66,90.8,70,89.2,75,89.2
			c4.6,0,8.4,1.6,11.2,4.7s4.3,7.2,4.3,12.3c0,5.5-1.5,9.8-4.4,13S79.4,123.9,74.5,123.9z M74.8,92.7c-3.5,0-6.4,1.3-8.6,3.8
			c-2.2,2.5-3.3,5.9-3.3,10s1.1,7.5,3.2,10c2.1,2.5,4.9,3.8,8.4,3.8c3.7,0,6.6-1.2,8.7-3.6s3.2-5.8,3.2-10.1c0-4.4-1-7.9-3.1-10.3
			S78.4,92.7,74.8,92.7z"/>
		<path class="st0" d="M127.3,93.3h-13.1v11.6h12.1v3.5h-12.1v14.9h-3.9V89.7h17.1V93.3z"/>
		<path class="st0" d="M163.9,93.3h-13.1v11.6h12.1v3.5h-12.1v14.9h-3.9V89.7h17.1V93.3z"/>
		<path class="st0" d="M201.3,123.3h-17.8V89.7h17.1v3.6h-13.1v11.2h12.1v3.5h-12.1v11.8h13.9V123.3z"/>
		<path class="st0" d="M238.7,123.3h-17.8V89.7h17.1v3.6h-13.1v11.2H237v3.5h-12.1v11.8h13.9V123.3z"/>
		<path class="st0" d="M68.5,180.9h-4.7l-5.6-9.4c-0.5-0.9-1-1.6-1.5-2.2s-1-1.1-1.5-1.5s-1.1-0.7-1.6-0.9s-1.2-0.3-2-0.3h-3.2v14.3
			h-3.9v-33.6h10c1.5,0,2.8,0.2,4.1,0.6s2.3,0.9,3.2,1.7s1.6,1.7,2.1,2.8s0.8,2.4,0.8,3.9c0,1.2-0.2,2.2-0.5,3.2s-0.9,1.8-1.5,2.6
			s-1.4,1.4-2.3,2s-1.9,1-3.1,1.3v0.1c0.6,0.3,1.1,0.5,1.5,0.9s0.8,0.7,1.2,1.1s0.7,0.9,1.1,1.5s0.8,1.2,1.2,1.9L68.5,180.9z
			 M48.3,150.9v12.2h5.3c1,0,1.9-0.1,2.7-0.4s1.6-0.7,2.2-1.3s1.1-1.2,1.4-2s0.5-1.7,0.5-2.7c0-1.8-0.6-3.2-1.7-4.2
			s-2.8-1.5-5.1-1.5H48.3z"/>
		<path class="st0" d="M99.8,181.5c-4.8,0-8.6-1.6-11.4-4.7s-4.3-7.2-4.3-12.3c0-5.4,1.5-9.7,4.4-12.9s6.9-4.8,11.9-4.8
			c4.6,0,8.4,1.6,11.2,4.7s4.3,7.2,4.3,12.3c0,5.5-1.5,9.8-4.4,13S104.7,181.5,99.8,181.5z M100.1,150.3c-3.5,0-6.4,1.3-8.6,3.8
			s-3.3,5.9-3.3,10s1.1,7.5,3.2,10s4.9,3.8,8.4,3.8c3.7,0,6.6-1.2,8.7-3.6s3.2-5.8,3.2-10.1c0-4.4-1-7.9-3.1-10.3
			S103.7,150.3,100.1,150.3z"/>
		<path class="st0" d="M149.1,181.5c-4.8,0-8.6-1.6-11.4-4.7s-4.3-7.2-4.3-12.3c0-5.4,1.5-9.7,4.4-12.9s6.9-4.8,11.9-4.8
			c4.6,0,8.4,1.6,11.2,4.7s4.3,7.2,4.3,12.3c0,5.5-1.5,9.8-4.4,13S154,181.5,149.1,181.5z M149.4,150.3c-3.5,0-6.4,1.3-8.6,3.8
			s-3.3,5.9-3.3,10s1.1,7.5,3.2,10s4.9,3.8,8.4,3.8c3.7,0,6.6-1.2,8.7-3.6s3.2-5.8,3.2-10.1c0-4.4-1-7.9-3.1-10.3
			S153,150.3,149.4,150.3z"/>
		<path class="st0" d="M219.2,180.9h-3.9v-22.5c0-1.8,0.1-4,0.3-6.5h-0.1c-0.4,1.5-0.7,2.6-1,3.3L203,180.9h-1.9l-11.5-25.6
			c-0.3-0.8-0.7-1.9-1-3.4h-0.1c0.1,1.3,0.2,3.5,0.2,6.6v22.5h-3.8v-33.6h5.2l10.3,23.4c0.8,1.8,1.3,3.1,1.5,4h0.1
			c0.7-1.8,1.2-3.2,1.6-4.1l10.5-23.3h4.9V180.9z"/>
	</g>
</g>
<g>
	<g>
		<path class="st1" d="M70.3,60.7h-1.7V46h1.7V60.7z"/>
		<path class="st1" d="M82.7,60.7H81v-6c0-2.2-0.8-3.3-2.4-3.3c-0.8,0-1.5,0.3-2.1,0.9c-0.6,0.6-0.8,1.4-0.8,2.4v6H74V50.2h1.7v1.7
			h0c0.8-1.3,1.9-2,3.4-2c1.1,0,2,0.4,2.6,1.1c0.6,0.7,0.9,1.8,0.9,3.2V60.7z"/>
		<path class="st1" d="M101.4,46l-4.8,9.3v5.4h-1.7v-5.4L90.1,46h2l3.3,6.6c0,0.1,0.2,0.4,0.4,0.9h0c0.1-0.2,0.2-0.5,0.4-0.9
			l3.4-6.6H101.4z"/>
		<path class="st1" d="M107.6,60.9c-1.6,0-2.8-0.5-3.7-1.5c-0.9-1-1.4-2.3-1.4-3.9c0-1.8,0.5-3.1,1.4-4.1c1-1,2.3-1.5,3.9-1.5
			c1.6,0,2.8,0.5,3.7,1.4c0.9,1,1.3,2.3,1.3,4c0,1.7-0.5,3-1.4,4C110.5,60.4,109.2,60.9,107.6,60.9z M107.7,51.3
			c-1.1,0-1.9,0.4-2.6,1.1c-0.6,0.7-0.9,1.7-0.9,3c0,1.2,0.3,2.2,1,2.9c0.6,0.7,1.5,1.1,2.6,1.1c1.1,0,1.9-0.4,2.5-1.1
			c0.6-0.7,0.9-1.7,0.9-3c0-1.3-0.3-2.3-0.9-3C109.6,51.7,108.8,51.3,107.7,51.3z"/>
		<path class="st1" d="M124,60.7h-1.7V59h0c-0.7,1.3-1.8,1.9-3.2,1.9c-2.5,0-3.8-1.5-3.8-4.5v-6.3h1.7v6c0,2.2,0.8,3.3,2.5,3.3
			c0.8,0,1.5-0.3,2-0.9c0.5-0.6,0.8-1.4,0.8-2.4v-6h1.7V60.7z"/>
		<path class="st1" d="M132.9,51.9c-0.3-0.2-0.7-0.3-1.3-0.3c-0.7,0-1.3,0.3-1.8,1c-0.5,0.7-0.7,1.6-0.7,2.8v5.4h-1.7V50.2h1.7v2.2
			h0c0.2-0.7,0.6-1.3,1.1-1.7c0.5-0.4,1-0.6,1.7-0.6c0.4,0,0.8,0,1,0.1V51.9z"/>
		<path class="st1" d="M151.7,60.7H150V54h-7.6v6.7h-1.7V46h1.7v6.5h7.6V46h1.7V60.7z"/>
		<path class="st1" d="M163.8,55.8h-7.4c0,1.2,0.3,2.1,0.9,2.7c0.6,0.6,1.4,1,2.5,1c1.2,0,2.3-0.4,3.3-1.2v1.6c-0.9,0.7-2.1,1-3.7,1
			c-1.5,0-2.6-0.5-3.5-1.4c-0.8-1-1.3-2.3-1.3-4c0-1.6,0.5-3,1.4-4c0.9-1,2.1-1.5,3.5-1.5s2.4,0.4,3.2,1.3c0.8,0.9,1.1,2.1,1.1,3.7
			V55.8z M162.1,54.4c0-1-0.2-1.7-0.7-2.3c-0.5-0.5-1.1-0.8-1.9-0.8c-0.8,0-1.5,0.3-2,0.9c-0.6,0.6-0.9,1.3-1,2.2H162.1z"/>
		<path class="st1" d="M173.9,60.7h-1.7V59h0c-0.7,1.3-1.8,1.9-3.2,1.9c-1,0-1.9-0.3-2.5-0.8c-0.6-0.6-0.9-1.3-0.9-2.2
			c0-2,1.2-3.1,3.5-3.4l3.1-0.4c0-1.8-0.7-2.7-2.2-2.7c-1.3,0-2.4,0.4-3.4,1.3v-1.7c1-0.7,2.2-1,3.6-1c2.5,0,3.7,1.3,3.7,3.9V60.7z
			 M172.2,55.4l-2.5,0.3c-0.8,0.1-1.4,0.3-1.8,0.6c-0.4,0.3-0.6,0.8-0.6,1.5c0,0.5,0.2,0.9,0.5,1.3c0.4,0.3,0.9,0.5,1.5,0.5
			c0.8,0,1.5-0.3,2.1-0.9c0.5-0.6,0.8-1.3,0.8-2.2V55.4z"/>
		<path class="st1" d="M182.5,51.9c-0.3-0.2-0.7-0.3-1.3-0.3c-0.7,0-1.3,0.3-1.8,1c-0.5,0.7-0.7,1.6-0.7,2.8v5.4H177V50.2h1.7v2.2h0
			c0.2-0.7,0.6-1.3,1.1-1.7c0.5-0.4,1-0.6,1.7-0.6c0.4,0,0.8,0,1,0.1V51.9z"/>
		<path class="st1" d="M189.2,60.6c-0.4,0.2-0.9,0.3-1.6,0.3c-1.8,0-2.8-1-2.8-3.1v-6.2h-1.8v-1.4h1.8v-2.6l1.7-0.5v3.1h2.6v1.4
			h-2.6v5.9c0,0.7,0.1,1.2,0.4,1.5s0.6,0.5,1.2,0.5c0.4,0,0.8-0.1,1.1-0.3V60.6z"/>
	</g>
</g>
<line class="st2" x1="28.5" y1="211.5" x2="227.5" y2="212.5"/>
<ellipse class="st3" cx="74.5" cy="106.5" rx="12" ry="13"/>
<ellipse class="st3" cx="101.5" cy="163.5" rx="12" ry="13"/>
<ellipse class="st3" cx="148.5" cy="163.5" rx="12" ry="13"/>
<ellipse class="st3" cx="219.3" cy="211.5" rx="6.8" ry="7"/>
<ellipse class="st3" cx="35.3" cy="211.5" rx="6.8" ry="7"/>
<ellipse class="st3" cx="126.3" cy="9.5" rx="6.8" ry="7"/>
<ellipse class="st2" cx="128" cy="130" rx="124.5" ry="123.5"/>
<path class="st2" d="M44,191c-4.1,8.9-7.9,18-12,27"/>
<path class="st2" d="M68,130c-2,4.3-4,8.7-6,13"/>
<path class="st2" d="M115,21c-3.4,7.3-6.6,14.7-10,22"/>
<path class="st2" d="M96,65c-3.4,7.3-6.6,14.7-10,22"/>
<line class="st2" x1="222.5" y1="217.5" x2="209.5" y2="185.5"/>
<line class="st2" x1="188.5" y1="140.5" x2="182.5" y2="127.5"/>
<line class="st2" x1="163.5" y1="83.5" x2="153.5" y2="63.5"/>
<line class="st2" x1="142.5" y1="40.5" x2="133.5" y2="21.5"/>
<circle class="st4" cx="126.5" cy="9.5" r="4.5"/>
<circle class="st4" cx="35.5" cy="211.5" r="4.5"/>
<circle class="st4" cx="219.5" cy="211.5" r="4.5"/>
</svg>
